<svg id="Concepto" xmlns="http://www.w3.org/2000/svg" viewBox="0 0 144.43 39.57"><defs><style>.cls-1{fill:#007f36;}</style></defs><title>SPES LG001</title><path class="cls-1" d="M50.66,39.47a28.68,28.68,0,0,1-4.52-.34,22.15,22.15,0,0,1-3.93-1,18.35,18.35,0,0,1-3.06-1.38l3.46-6.62a20,20,0,0,0,3,1.39,17.62,17.62,0,0,0,3,.82,17.85,17.85,0,0,0,3,.26,8.23,8.23,0,0,0,2-.19,2.65,2.65,0,0,0,1.18-.55,1.06,1.06,0,0,0,.4-.82,1.12,1.12,0,0,0-.68-1,8.29,8.29,0,0,0-1.81-.69c-.75-.2-1.57-.41-2.47-.62a24.2,24.2,0,0,1-2.72-.84,10.92,10.92,0,0,1-2.49-1.31,6,6,0,0,1-1.8-2,5.89,5.89,0,0,1-.69-3,8.76,8.76,0,0,1,1.62-5.28,10.31,10.31,0,0,1,4.64-3.48,19,19,0,0,1,7.2-1.23,24.89,24.89,0,0,1,5.53.58,15.92,15.92,0,0,1,4.43,1.69l-3.24,6.54A12.62,12.62,0,0,0,59.16,19a15,15,0,0,0-3.82-.49,8.34,8.34,0,0,0-2.17.24,3.15,3.15,0,0,0-1.31.67,1.23,1.23,0,0,0-.44.87,1.17,1.17,0,0,0,.69,1,7.19,7.19,0,0,0,1.82.68c.76.19,1.59.4,2.49.61a27.59,27.59,0,0,1,2.7.8,10.76,10.76,0,0,1,2.49,1.25,5.63,5.63,0,0,1,2.51,4.92,8.52,8.52,0,0,1-1.64,5.19,10.75,10.75,0,0,1-4.65,3.48A18.61,18.61,0,0,1,50.66,39.47Z"/><path class="cls-1" d="M65.07,38.87l5.32-26.61H82.21c3.57,0,6.32.78,8.26,2.32a7.84,7.84,0,0,1,2.91,6.5A10.59,10.59,0,0,1,91.73,27a10.85,10.85,0,0,1-4.68,4,16.69,16.69,0,0,1-7.12,1.41H71.34l4.79-3.92L74,38.87ZM75.9,29.48l-3.16-4.07h7.64a4.15,4.15,0,0,0,2.89-.93,3.35,3.35,0,0,0,1-2.6,2.34,2.34,0,0,0-.9-2.07A4.17,4.17,0,0,0,81,19.18H74L78.79,15Z"/><path class="cls-1" d="M103.07,32.1h13.34L115,38.87H92.92l5.32-26.61h21.63L118.5,19H105.69Zm1.41-10h11.85L115,28.61H103.18Z"/><path class="cls-1" d="M129.07,39.47a28.81,28.81,0,0,1-4.53-.34,22.15,22.15,0,0,1-3.93-1,18.35,18.35,0,0,1-3.06-1.38L121,30.16a20.46,20.46,0,0,0,3,1.39,17.62,17.62,0,0,0,3,.82,17.85,17.85,0,0,0,3,.26,8.18,8.18,0,0,0,2-.19,2.6,2.6,0,0,0,1.18-.55,1.06,1.06,0,0,0,.4-.82,1.12,1.12,0,0,0-.68-1A8.29,8.29,0,0,0,131,29.4c-.75-.2-1.57-.41-2.47-.62a24,24,0,0,1-2.71-.84,10.52,10.52,0,0,1-2.49-1.31,6.06,6.06,0,0,1-1.81-2,5.89,5.89,0,0,1-.68-3,8.75,8.75,0,0,1,1.61-5.28,10.31,10.31,0,0,1,4.64-3.48,19,19,0,0,1,7.2-1.23,24.83,24.83,0,0,1,5.53.58,15.8,15.8,0,0,1,4.43,1.69L141,20.47A12.81,12.81,0,0,0,137.56,19a14.94,14.94,0,0,0-3.82-.49,8.39,8.39,0,0,0-2.17.24,3.15,3.15,0,0,0-1.31.67,1.21,1.21,0,0,0-.43.87,1.15,1.15,0,0,0,.68,1,7.34,7.34,0,0,0,1.82.68c.76.19,1.59.4,2.49.61a27.59,27.59,0,0,1,2.7.8A10.76,10.76,0,0,1,140,24.63a6,6,0,0,1,1.83,2,5.92,5.92,0,0,1,.68,2.94,8.58,8.58,0,0,1-1.63,5.19,10.78,10.78,0,0,1-4.66,3.48A18.52,18.52,0,0,1,129.07,39.47Z"/><path class="cls-1" d="M3.65,36.63a25.22,25.22,0,0,0,14-5,1.14,1.14,0,0,0-.28,0c-6.6.41-11.48-2.32-15-7.5A17.58,17.58,0,0,1,.08,18.75c0-.1,0-.21-.08-.39a12.8,12.8,0,0,0,1.15.74,4.63,4.63,0,0,1,2,2.06,15.25,15.25,0,0,0,9.08,7.18,13.55,13.55,0,0,0,7.23.26l.17-.05s0,0,.08-.05c-.58.07-1.13.16-1.69.21A14,14,0,0,1,10.09,27,15.4,15.4,0,0,1,2.8,18.34a18.35,18.35,0,0,1-1-6.48,1.77,1.77,0,0,1,0-.23.27.27,0,0,1,0-.1l.22.19c.55.59,1.11,1.17,1.64,1.78a1.34,1.34,0,0,1,.27.62,15.32,15.32,0,0,0,4.6,8.2,14.31,14.31,0,0,0,7.81,3.76,13.28,13.28,0,0,0,1.9.11c-.67-.08-1.35-.13-2-.26A14,14,0,0,1,7,19.59,15.55,15.55,0,0,1,4.76,8.16c.13-.84.38-1.67.58-2.5a2.11,2.11,0,0,1,.1-.3h.09L6.65,7.55a.84.84,0,0,1,0,.39A14.83,14.83,0,0,0,9.34,18.2a13.44,13.44,0,0,0,8,5.46c.54.13,1.09.2,1.46.26-.79-.24-1.78-.45-2.69-.82a13,13,0,0,1-7-6.52,14.92,14.92,0,0,1-.53-12.2A19,19,0,0,1,10.49.53l.15-.22.11,0,.12.67a23.78,23.78,0,0,0,5.37,11.68,19.08,19.08,0,0,0,7.64,5.46,13.91,13.91,0,0,0,3.78.9c.25,0,.33-.06.39-.29a17.18,17.18,0,0,1,2.46-5.86,8.06,8.06,0,0,1,4.06-3.24,7.48,7.48,0,0,1,5.21.19,10.09,10.09,0,0,1,3.95,2.73h-.34a8.81,8.81,0,0,0-7.68,2.92c-.21.22-.34.26-.62.09a2.69,2.69,0,0,0-3.43.76c-.14.2-.13.31.09.45A2.71,2.71,0,0,0,34,17l.52-.19a1,1,0,0,1-.08.2c-.38.7-.77,1.4-1.13,2.1-.11.22-.21.26-.45.19a2.65,2.65,0,0,0-3.09,1.35c-.2.42-.18.47.27.61A2.68,2.68,0,0,0,32.17,21c.15-.08.29-.18.49-.3a2.84,2.84,0,0,1-.06.29c-.09.32-.21.65-.29,1a3,3,0,0,1-.76,1.52,2.31,2.31,0,0,0,0,3c.14.18.25.19.44.06a2.39,2.39,0,0,0,.72-3.23.76.76,0,0,1-.09-.62c.16-.53.29-1.06.44-1.59h.1a2.83,2.83,0,0,0,.11.31,2.52,2.52,0,0,0,1.54,1.55c.24.1.34,0,.43-.19a2.45,2.45,0,0,0-1.09-3l-.52-.28L35,17l.13,0v.34a2.43,2.43,0,0,0,1.4,2.16c.2.1.3.07.41-.12a2.44,2.44,0,0,0-.8-3.22L35.82,16a8.11,8.11,0,0,1,7-3.09.6.6,0,0,1-.14.11,4.36,4.36,0,0,0-2.21,2,14.07,14.07,0,0,0-1.4,3.91c-.57,2.29-1,4.61-1.67,6.89a17.31,17.31,0,0,1-7.69,10.49A20.33,20.33,0,0,1,22.87,39a30.35,30.35,0,0,1-9.51.26A40.31,40.31,0,0,1,4,36.86l-.34-.14Z"/></svg>